<svg width="256" height="256" viewBox="0 0 256 256" fill="none" xmlns="http://www.w3.org/2000/svg">
<rect width="256" height="256" fill="white"/>
<path d="M215 130.511V42H27V202H117.602" stroke="#141414" stroke-width="5"/>
<path d="M27 81.7163H215" stroke="#141414" stroke-width="5"/>
<circle cx="45" cy="61" r="6" stroke="#141414" stroke-width="5"/>
<circle cx="69" cy="61" r="6" stroke="#141414" stroke-width="5"/>
<circle cx="92" cy="61" r="6" stroke="#141414" stroke-width="5"/>
<line x1="203" y1="60.5" x2="141" y2="60.5" stroke="#141414" stroke-width="5"/>
<mask id="path-7-inside-1_5959_227" fill="white">
<path fill-rule="evenodd" clip-rule="evenodd" d="M199.712 146.58L199.498 147.212C199.162 148.207 198.731 149.149 198.216 150.031H222.983V175.163C223.829 174.681 224.73 174.276 225.679 173.957L226.365 173.726C235.604 170.622 245 178.019 245 188.397C245 198.499 236.064 205.856 226.956 203.251L226.341 203.074C225.149 202.733 224.025 202.256 222.983 201.663V226H194.46L197.676 216.086C200.359 207.818 193.967 199.411 184.999 199.411C176.268 199.411 169.911 207.407 172.163 215.557L175.048 226H147.017V201.663C145.975 202.256 144.851 202.733 143.659 203.074L143.044 203.251C133.936 205.856 125 198.499 125 188.397C125 178.019 134.396 170.622 143.635 173.726L144.321 173.957C145.27 174.276 146.171 174.681 147.017 175.163V150.031H171.751C171.122 148.953 170.618 147.785 170.26 146.544L170.101 145.991C167.488 136.91 174.866 128 184.999 128C195.407 128 202.825 137.368 199.712 146.58Z"/>
</mask>
<path d="M199.498 147.212L194.761 145.611L194.761 145.611L199.498 147.212ZM199.712 146.58L204.449 148.181L204.449 148.181L199.712 146.58ZM198.216 150.031L193.898 147.511L189.51 155.031H198.216V150.031ZM222.983 150.031H227.983V145.031H222.983V150.031ZM222.983 175.163H217.983V183.766L225.458 179.508L222.983 175.163ZM225.679 173.957L227.271 178.697L227.271 178.697L225.679 173.957ZM226.365 173.726L224.773 168.987L224.773 168.987L226.365 173.726ZM226.956 203.251L228.332 198.443L228.332 198.443L226.956 203.251ZM226.341 203.074L224.965 207.882L224.965 207.882L226.341 203.074ZM222.983 201.663L225.459 197.318L217.983 193.059V201.663H222.983ZM222.983 226V231H227.983V226H222.983ZM194.46 226L189.704 224.457L187.581 231H194.46V226ZM197.676 216.086L192.921 214.542L192.921 214.542L197.676 216.086ZM172.163 215.557L167.343 216.888L167.343 216.888L172.163 215.557ZM175.048 226V231H181.617L179.867 224.668L175.048 226ZM147.017 226H142.017V231H147.017V226ZM147.017 201.663H152.017V193.059L144.541 197.318L147.017 201.663ZM143.659 203.074L145.035 207.882L145.035 207.882L143.659 203.074ZM143.044 203.251L141.668 198.443L141.668 198.443L143.044 203.251ZM125 188.397L130 188.397L130 188.397L125 188.397ZM143.635 173.726L145.227 168.987L145.227 168.987L143.635 173.726ZM144.321 173.957L142.729 178.697L142.729 178.697L144.321 173.957ZM147.017 175.163L144.542 179.508L152.017 183.766V175.163H147.017ZM147.017 150.031V145.031H142.017V150.031H147.017ZM171.751 150.031V155.031H180.458L176.069 147.511L171.751 150.031ZM170.26 146.544L165.455 147.927L165.455 147.927L170.26 146.544ZM170.101 145.991L174.906 144.608L174.906 144.608L170.101 145.991ZM204.235 148.813L204.449 148.181L194.975 144.98L194.761 145.611L204.235 148.813ZM202.535 152.551C203.218 151.38 203.79 150.13 204.235 148.813L194.761 145.611C194.534 146.284 194.243 146.919 193.898 147.511L202.535 152.551ZM222.983 145.031H198.216V155.031H222.983V145.031ZM227.983 175.163V150.031H217.983V175.163H227.983ZM224.086 169.217C222.829 169.64 221.633 170.178 220.508 170.819L225.458 179.508C226.026 179.184 226.632 178.912 227.271 178.697L224.086 169.217ZM224.773 168.987L224.086 169.217L227.271 178.697L227.958 178.466L224.773 168.987ZM250 188.397C250 175.106 237.716 164.638 224.773 168.987L227.958 178.466C233.493 176.606 240 180.931 240 188.397H250ZM225.581 208.058C238.33 211.705 250 201.342 250 188.397H240C240 195.657 233.798 200.007 228.332 198.443L225.581 208.058ZM224.965 207.882L225.581 208.058L228.332 198.443L227.716 198.267L224.965 207.882ZM220.508 206.007C221.893 206.796 223.386 207.43 224.965 207.882L227.716 198.267C226.912 198.037 226.157 197.716 225.459 197.318L220.508 206.007ZM227.983 226V201.663H217.983V226H227.983ZM194.46 231H222.983V221H194.46V231ZM192.921 214.542L189.704 224.457L199.215 227.543L202.432 217.629L192.921 214.542ZM184.999 204.411C190.817 204.411 194.48 209.736 192.921 214.542L202.432 217.629C206.238 205.901 197.117 194.411 184.999 194.411V204.411ZM176.982 214.225C175.671 209.482 179.338 204.411 184.999 204.411V194.411C173.199 194.411 164.15 205.333 167.343 216.888L176.982 214.225ZM179.867 224.668L176.982 214.225L167.343 216.888L170.229 227.332L179.867 224.668ZM147.017 231H175.048V221H147.017V231ZM142.017 201.663V226H152.017V201.663H142.017ZM145.035 207.882C146.614 207.43 148.107 206.796 149.492 206.007L144.541 197.318C143.843 197.716 143.088 198.037 142.284 198.267L145.035 207.882ZM144.419 208.058L145.035 207.882L142.284 198.267L141.668 198.443L144.419 208.058ZM120 188.397C120 201.342 131.67 211.705 144.419 208.058L141.668 198.443C136.202 200.007 130 195.657 130 188.397H120ZM145.227 168.987C132.284 164.638 120 175.106 120 188.397L130 188.397C130 180.931 136.507 176.606 142.042 178.466L145.227 168.987ZM145.914 169.217L145.227 168.987L142.042 178.466L142.729 178.697L145.914 169.217ZM149.492 170.819C148.367 170.178 147.171 169.64 145.914 169.217L142.729 178.697C143.369 178.912 143.974 179.184 144.542 179.508L149.492 170.819ZM142.017 150.031V175.163H152.017V150.031H142.017ZM171.751 145.031H147.017V155.031H171.751V145.031ZM165.455 147.927C165.928 149.57 166.597 151.119 167.432 152.551L176.069 147.511C175.647 146.787 175.307 146 175.065 145.161L165.455 147.927ZM165.296 147.374L165.455 147.927L175.065 145.161L174.906 144.608L165.296 147.374ZM184.999 123C172.063 123 161.624 134.613 165.296 147.374L174.906 144.608C173.352 139.208 177.67 133 184.999 133V123ZM204.449 148.181C208.827 135.224 198.278 123 184.999 123V133C192.535 133 196.822 139.512 194.975 144.98L204.449 148.181Z" fill="#141414" mask="url(#path-7-inside-1_5959_227)"/>
<g clip-path="url(#clip0_5959_227)">
<path d="M82 140.5C82 133.849 87.3178 128.457 93.8778 128.457C100.438 128.457 105.756 133.849 105.756 140.5C105.756 147.151 100.438 152.543 93.8778 152.543C87.3178 152.543 82 147.151 82 140.5Z" fill="#1ABCFE"/>
<path d="M58.2444 164.586C58.2444 157.935 63.5623 152.543 70.1222 152.543H82V164.586C82 171.237 76.6822 176.628 70.1222 176.628C63.5623 176.628 58.2444 171.237 58.2444 164.586Z" fill="#0ACF83"/>
<path d="M82 104.372V128.457H93.8778C100.438 128.457 105.756 123.065 105.756 116.414C105.756 109.763 100.438 104.372 93.8778 104.372H82Z" fill="#FF7262"/>
<path d="M58.2444 116.414C58.2444 123.065 63.5623 128.457 70.1222 128.457H82V104.372H70.1222C63.5623 104.372 58.2444 109.763 58.2444 116.414Z" fill="#F24E1E"/>
<path d="M58.2444 140.5C58.2444 147.151 63.5623 152.543 70.1222 152.543H82V128.457H70.1222C63.5623 128.457 58.2444 133.849 58.2444 140.5Z" fill="#A259FF"/>
</g>
<defs>
<clipPath id="clip0_5959_227">
<rect width="48" height="73" fill="white" transform="translate(58 104)"/>
</clipPath>
</defs>
</svg>
